<svg width="29" height="31" viewBox="0 0 29 31" fill="none" xmlns="http://www.w3.org/2000/svg">
<path d="M5.33301 22.458C7.16617 21.7851 9.23591 22.7797 9.9043 24.7402L10.0771 25.249H18.9238L19.0967 24.7393C19.6067 23.2318 20.9676 22.2492 22.4746 22.249C23.9045 22.249 25.2037 23.1161 25.791 24.4678L25.8984 24.7441C26.5466 26.6515 25.6204 28.7239 23.8457 29.4697L23.6709 29.5381L23.665 29.54C21.849 30.2109 19.7793 29.2192 19.1104 27.2568L18.9375 26.748H10.0889L9.90918 27.2422C9.51169 28.3342 8.71859 29.1727 7.71973 29.5381C5.85665 30.2132 3.80025 29.2181 3.11719 27.2568C2.46641 25.3475 3.3943 23.2729 5.15723 22.5273L5.33008 22.459L5.33301 22.458ZM6.52539 1.25C9.71227 1.25022 12.2998 3.89042 12.2998 7.25C12.2997 8.36674 11.935 9.67313 11.3418 11.043C10.7526 12.4035 9.96107 13.7744 9.15918 15.0049C8.35856 16.2334 7.55645 17.3094 6.9541 18.0781C6.79587 18.2801 6.65096 18.46 6.52441 18.6162C6.39796 18.4601 6.25377 18.2798 6.0957 18.0781C5.49336 17.3094 4.69125 16.2334 3.89062 15.0049C3.08875 13.7745 2.29719 12.4034 1.70801 11.043C1.1148 9.67316 0.75008 8.36672 0.75 7.25C0.75 3.89029 3.33833 1.25 6.52539 1.25ZM22.4746 1.25C25.6617 1.25 28.25 3.89029 28.25 7.25C28.2499 8.36672 27.8852 9.67316 27.292 11.043C26.7028 12.4034 25.9112 13.7745 25.1094 15.0049C24.3088 16.2334 23.5066 17.3094 22.9043 18.0781C22.7461 18.28 22.6012 18.46 22.4746 18.6162C22.3482 18.4601 22.204 18.2798 22.0459 18.0781C21.4436 17.3094 20.6414 16.2334 19.8408 15.0049C19.0389 13.7744 18.2474 12.4035 17.6582 11.043C17.065 9.67313 16.7003 8.36674 16.7002 7.25C16.7002 3.89042 19.2877 1.25022 22.4746 1.25ZM6.52539 4.08496C5.75056 4.08496 5.00974 4.38344 4.44531 4.91211L4.33496 5.02051C3.75945 5.61583 3.44043 6.41866 3.44043 7.25C3.44062 8.97485 4.79707 10.4141 6.52539 10.4141C7.30009 10.414 8.04016 10.1155 8.60449 9.58691L8.71484 9.47852C9.29027 8.88328 9.60928 8.08121 9.60938 7.25C9.60938 5.52512 8.25364 4.08518 6.52539 4.08496ZM22.4746 4.08496C20.7464 4.08518 19.3906 5.52512 19.3906 7.25C19.3907 8.02909 19.6707 8.78269 20.1797 9.36426L20.2852 9.47852C20.8614 10.0746 21.6484 10.414 22.4746 10.4141C23.2495 10.4141 23.9902 10.1157 24.5547 9.58691L24.665 9.47852C25.2405 8.88328 25.5595 8.0812 25.5596 7.25C25.5596 5.52499 24.203 4.08496 22.4746 4.08496Z" stroke="#1E2A38" stroke-width="1.5"/>
</svg>
