<svg width="94" height="122" viewBox="0 0 94 122" fill="none" xmlns="http://www.w3.org/2000/svg">
<path d="M29.7668 102.383L38.8544 116.894C42.812 123.05 51.7531 123.05 55.7106 116.894L64.7983 102.383C71.2476 92.2692 77.9901 82.3021 85.0257 72.4815C97.9243 54.5993 96.1654 29.5349 80.0421 13.4116C62.0134 -4.47055 32.6983 -4.47055 14.523 13.4116C-1.74691 29.5349 -3.35924 54.5993 9.53939 72.4815C16.575 82.3021 23.3175 92.2692 29.7668 102.383ZM81.9476 45.5116C81.9476 64.4199 66.5572 79.8103 47.3558 79.8103C28.1544 79.8103 12.764 64.4199 12.764 45.5116C12.764 26.6034 28.1544 11.213 47.3558 11.213C66.5572 11.213 81.9476 26.6034 81.9476 45.5116ZM69.9284 52.4007C69.4887 55.039 68.6093 59.876 67.7298 62.2212C67.1435 63.9801 66.1175 64.2733 64.3586 63.8336C61.4271 62.9541 57.9092 61.3418 54.6846 60.1692C51.6065 58.9966 45.8901 57.824 44.1312 54.8925C42.6654 52.5473 43.2517 49.4692 40.4668 47.5637C37.8284 45.8048 31.6723 44.0459 28.301 42.7267C26.9818 42.287 24.7832 42.287 24.4901 40.3815C24.0503 37.45 27.7147 38.1829 28.8873 37.1568C29.6202 36.424 30.3531 34.8116 31.2325 33.9322C38.8544 24.6979 49.4079 24.698 59.6682 29.9747C68.9024 34.6651 71.5408 42.7267 69.9284 52.4007Z" fill="white"/>
</svg>
