<svg width="56" height="103" viewBox="0 0 56 103" fill="none" xmlns="http://www.w3.org/2000/svg">
    <path d="M18.0494 62.6606L23.3637 71.4706C25.6781 75.2082 30.9067 75.2082 33.221 71.4706L38.5354 62.6606C42.3069 56.5203 46.2498 50.469 50.3642 44.5066C57.9071 33.6498 56.8786 18.4325 47.4498 8.64358C36.9068 -2.21322 19.7637 -2.21322 9.13495 8.64358C-0.379489 18.4325 -1.32236 33.6498 6.22061 44.5066C10.335 50.469 14.2779 56.5203 18.0494 62.6606ZM48.5641 28.1324C48.5641 39.6122 39.564 48.9561 28.3352 48.9561C17.1065 48.9561 8.10636 39.6122 8.10636 28.1324C8.10636 16.6527 17.1065 7.30872 28.3352 7.30872C39.564 7.30872 48.5641 16.6527 48.5641 28.1324ZM41.5355 32.315C41.2783 33.9168 40.764 36.8535 40.2497 38.2773C39.9069 39.3452 39.3069 39.5232 38.2783 39.2562C36.564 38.7222 34.5068 37.7434 32.621 37.0314C30.821 36.3195 27.4781 35.6076 26.4495 33.8278C25.5923 32.404 25.9352 30.5352 24.3066 29.3783C22.7637 28.3104 19.1637 27.2425 17.1922 26.4416C16.4208 26.1746 15.135 26.1746 14.9636 25.0178C14.7065 23.238 16.8493 23.6829 17.5351 23.06C17.9637 22.615 18.3922 21.6361 18.9065 21.1022C23.3637 15.4958 29.5353 15.4958 35.5354 18.6995C40.9355 21.5472 42.4783 26.4416 41.5355 32.315Z"
          fill="white"/>
    <path d="M5.96428 78.56C4.67855 77.1362 6.39286 75.2674 7.59288 74.6445C8.7929 74.0215 18.772 74.4664 18.772 74.4664C18.772 74.4664 22.1853 81.5857 28.2007 81.5857C35.058 81.5856 37.6294 74.4664 37.6294 74.4664C37.6294 74.4664 50.7936 73.4876 50.1078 78.382C50.1078 78.382 29.915 83.8104 21.3435 92.2644L5.96428 78.471V78.56Z"
          fill="white"/>
    <path d="M15.3433 102.499C23.4862 94.9344 26.0577 91.3748 36.7722 86.9253L41.058 102.054L15.3433 102.499Z"
          fill="white"/>
    <path d="M4.84971 81.3188L19.1642 94.2224C19.1642 94.8454 11.1927 101.698 10.2498 101.965C7.16403 102.765 1.24965 103.032 0.649642 99.0279C0.478211 97.871 3.47826 84.8784 4.07827 82.9207C4.67828 80.9629 4.2497 81.7638 4.93542 81.3188H4.84971Z"
          fill="white"/>
    <path d="M50.7931 81.9414C51.5646 86.7469 53.7932 92.1753 54.3075 96.8918C55.1646 104.011 48.9931 101.875 44.193 102.053L39.9072 85.768L50.7931 81.9414Z"
          fill="white"/>
</svg>
