<svg width="22" height="17" viewBox="0 0 22 17" fill="none" xmlns="http://www.w3.org/2000/svg">
<path d="M0.75 0.499023V1.99902C0.75 6.14902 2.96 9.77902 6.25 11.799V16.499H21.25V14.499C21.25 11.839 15.92 10.499 13.25 10.499C13.25 10.499 13.08 10.499 13 10.499C8.25 10.499 4.25 6.49902 4.25 1.99902V0.499023M13.25 0.499023C12.1891 0.499023 11.1717 0.920451 10.4216 1.6706C9.67143 2.42074 9.25 3.43816 9.25 4.49902C9.25 5.55989 9.67143 6.57731 10.4216 7.32745C11.1717 8.0776 12.1891 8.49902 13.25 8.49902C14.3109 8.49902 15.3283 8.0776 16.0784 7.32745C16.8286 6.57731 17.25 5.55989 17.25 4.49902C17.25 3.43816 16.8286 2.42074 16.0784 1.6706C15.3283 0.920451 14.3109 0.499023 13.25 0.499023Z" fill="#D4AF37"/>
</svg>
