<svg width="94" height="122" viewBox="0 0 94 122" fill="none" xmlns="http://www.w3.org/2000/svg">
<path d="M29.7669 102.383L38.8545 116.894C42.8121 123.05 51.7532 123.05 55.7107 116.894L64.7984 102.383C71.2477 92.2692 77.9902 82.3021 85.0258 72.4815C97.9244 54.5993 96.1655 29.5349 80.0422 13.4116C62.0135 -4.47055 32.6984 -4.47055 14.523 13.4116C-1.74682 29.5349 -3.35915 54.5993 9.53948 72.4815C16.5751 82.3021 23.3176 92.2692 29.7669 102.383ZM81.9477 45.5116C81.9477 64.4199 66.5573 79.8103 47.3559 79.8103C28.1545 79.8103 12.7641 64.4199 12.7641 45.5116C12.7641 26.6034 28.1545 11.213 47.3559 11.213C66.5573 11.213 81.9477 26.6034 81.9477 45.5116ZM69.9285 52.4007C69.4888 55.039 68.6094 59.876 67.7299 62.2212C67.1436 63.9801 66.1176 64.2733 64.3587 63.8336C61.4272 62.9541 57.9093 61.3418 54.6847 60.1692C51.6066 58.9966 45.8902 57.824 44.1313 54.8925C42.6655 52.5473 43.2518 49.4692 40.4669 47.5637C37.8285 45.8048 31.6723 44.0459 28.3011 42.7267C26.9819 42.287 24.7833 42.287 24.4902 40.3815C24.0504 37.45 27.7148 38.1829 28.8874 37.1568C29.6203 36.424 30.3532 34.8116 31.2326 33.9322C38.8545 24.6979 49.408 24.698 59.6683 29.9747C68.9025 34.6651 71.5409 42.7267 69.9285 52.4007Z" fill="#1C2D34"/>
</svg>
